<mxfile host="app.diagrams.net" modified="2024-05-31T10:46:19.962Z" agent="Mozilla/5.0 (Windows NT 10.0; Win64; x64) AppleWebKit/537.36 (KHTML, like Gecko) Chrome/125.0.0.0 Safari/537.36" etag="zP-ndaHCfjrgiMccoRX2" version="24.4.11" type="device">
  <diagram id="C5RBs43oDa-KdzZeNtuy" name="Page-1">
    <mxGraphModel dx="4012" dy="772" grid="1" gridSize="10" guides="1" tooltips="1" connect="1" arrows="1" fold="1" page="1" pageScale="1" pageWidth="1169" pageHeight="827" math="0" shadow="0">
      <root>
        <mxCell id="WIyWlLk6GJQsqaUBKTNV-0" />
        <mxCell id="WIyWlLk6GJQsqaUBKTNV-1" parent="WIyWlLk6GJQsqaUBKTNV-0" />
        <mxCell id="hVGt1LhpxKJkZvYj-mMZ-0" value="User" style="swimlane;fontStyle=1;align=center;verticalAlign=top;childLayout=stackLayout;horizontal=1;startSize=26;horizontalStack=0;resizeParent=1;resizeParentMax=0;resizeLast=0;collapsible=1;marginBottom=0;whiteSpace=wrap;html=1;" parent="WIyWlLk6GJQsqaUBKTNV-1" vertex="1">
          <mxGeometry x="-1796" y="970" width="160" height="200" as="geometry" />
        </mxCell>
        <mxCell id="hVGt1LhpxKJkZvYj-mMZ-1" value="&lt;div&gt;&lt;span style=&quot;background-color: initial;&quot;&gt;- Name: text&lt;/span&gt;&lt;br&gt;&lt;/div&gt;- Email: text&lt;div&gt;- HashedPassword: text&lt;/div&gt;&lt;div&gt;- Salt: text&lt;/div&gt;&lt;div&gt;- Username: text&lt;br&gt;- Photo: varbinary(MAX)&lt;div&gt;- Banned: bit&lt;/div&gt;&lt;div&gt;- Importancy: int&lt;/div&gt;&lt;/div&gt;" style="text;strokeColor=none;fillColor=none;align=left;verticalAlign=top;spacingLeft=4;spacingRight=4;overflow=hidden;rotatable=0;points=[[0,0.5],[1,0.5]];portConstraint=eastwest;whiteSpace=wrap;html=1;" parent="hVGt1LhpxKJkZvYj-mMZ-0" vertex="1">
          <mxGeometry y="26" width="160" height="134" as="geometry" />
        </mxCell>
        <mxCell id="hVGt1LhpxKJkZvYj-mMZ-2" value="" style="line;strokeWidth=1;fillColor=none;align=left;verticalAlign=middle;spacingTop=-1;spacingLeft=3;spacingRight=3;rotatable=0;labelPosition=right;points=[];portConstraint=eastwest;strokeColor=inherit;" parent="hVGt1LhpxKJkZvYj-mMZ-0" vertex="1">
          <mxGeometry y="160" width="160" height="8" as="geometry" />
        </mxCell>
        <mxCell id="hVGt1LhpxKJkZvYj-mMZ-3" value="&amp;lt;&amp;lt;PK&amp;gt;&amp;gt;: ID" style="text;strokeColor=none;fillColor=none;align=left;verticalAlign=top;spacingLeft=4;spacingRight=4;overflow=hidden;rotatable=0;points=[[0,0.5],[1,0.5]];portConstraint=eastwest;whiteSpace=wrap;html=1;" parent="hVGt1LhpxKJkZvYj-mMZ-0" vertex="1">
          <mxGeometry y="168" width="160" height="32" as="geometry" />
        </mxCell>
        <mxCell id="hVGt1LhpxKJkZvYj-mMZ-4" value="Exercise" style="swimlane;fontStyle=1;align=center;verticalAlign=top;childLayout=stackLayout;horizontal=1;startSize=26;horizontalStack=0;resizeParent=1;resizeParentMax=0;resizeLast=0;collapsible=1;marginBottom=0;whiteSpace=wrap;html=1;" parent="WIyWlLk6GJQsqaUBKTNV-1" vertex="1">
          <mxGeometry x="-1576" y="1350" width="160" height="150" as="geometry" />
        </mxCell>
        <mxCell id="hVGt1LhpxKJkZvYj-mMZ-5" value="&lt;div&gt;&lt;span style=&quot;background-color: initial;&quot;&gt;Text: text&lt;/span&gt;&lt;br&gt;&lt;/div&gt;&lt;div&gt;CreationDate: datetime&lt;/div&gt;&lt;div&gt;&lt;span style=&quot;background-color: initial;&quot;&gt;Title: text&lt;/span&gt;&lt;/div&gt;&lt;div&gt;IsOfficial: bit&lt;/div&gt;&lt;div&gt;&lt;br&gt;&lt;/div&gt;" style="text;strokeColor=none;fillColor=none;align=left;verticalAlign=top;spacingLeft=4;spacingRight=4;overflow=hidden;rotatable=0;points=[[0,0.5],[1,0.5]];portConstraint=eastwest;whiteSpace=wrap;html=1;" parent="hVGt1LhpxKJkZvYj-mMZ-4" vertex="1">
          <mxGeometry y="26" width="160" height="74" as="geometry" />
        </mxCell>
        <mxCell id="hVGt1LhpxKJkZvYj-mMZ-6" value="" style="line;strokeWidth=1;fillColor=none;align=left;verticalAlign=middle;spacingTop=-1;spacingLeft=3;spacingRight=3;rotatable=0;labelPosition=right;points=[];portConstraint=eastwest;strokeColor=inherit;" parent="hVGt1LhpxKJkZvYj-mMZ-4" vertex="1">
          <mxGeometry y="100" width="160" height="8" as="geometry" />
        </mxCell>
        <mxCell id="hVGt1LhpxKJkZvYj-mMZ-7" value="&amp;lt;&amp;lt;PK&amp;gt;&amp;gt; ID: int&lt;div&gt;&amp;lt;&amp;lt;FK&amp;gt;&amp;gt; CreatorID: int&lt;br&gt;&lt;/div&gt;" style="text;strokeColor=none;fillColor=none;align=left;verticalAlign=top;spacingLeft=4;spacingRight=4;overflow=hidden;rotatable=0;points=[[0,0.5],[1,0.5]];portConstraint=eastwest;whiteSpace=wrap;html=1;" parent="hVGt1LhpxKJkZvYj-mMZ-4" vertex="1">
          <mxGeometry y="108" width="160" height="42" as="geometry" />
        </mxCell>
        <mxCell id="CAt87Y8O4JC6d1RtImim-4" value="PersonalPath" style="swimlane;fontStyle=1;align=center;verticalAlign=top;childLayout=stackLayout;horizontal=1;startSize=26;horizontalStack=0;resizeParent=1;resizeParentMax=0;resizeLast=0;collapsible=1;marginBottom=0;whiteSpace=wrap;html=1;" parent="WIyWlLk6GJQsqaUBKTNV-1" vertex="1">
          <mxGeometry x="-2041" y="1186" width="160" height="110" as="geometry" />
        </mxCell>
        <mxCell id="CAt87Y8O4JC6d1RtImim-5" value="&lt;div&gt;&lt;span style=&quot;background-color: initial;&quot;&gt;CurrentPlace: int&lt;/span&gt;&lt;br&gt;&lt;/div&gt;" style="text;strokeColor=none;fillColor=none;align=left;verticalAlign=top;spacingLeft=4;spacingRight=4;overflow=hidden;rotatable=0;points=[[0,0.5],[1,0.5]];portConstraint=eastwest;whiteSpace=wrap;html=1;" parent="CAt87Y8O4JC6d1RtImim-4" vertex="1">
          <mxGeometry y="26" width="160" height="34" as="geometry" />
        </mxCell>
        <mxCell id="CAt87Y8O4JC6d1RtImim-6" value="" style="line;strokeWidth=1;fillColor=none;align=left;verticalAlign=middle;spacingTop=-1;spacingLeft=3;spacingRight=3;rotatable=0;labelPosition=right;points=[];portConstraint=eastwest;strokeColor=inherit;" parent="CAt87Y8O4JC6d1RtImim-4" vertex="1">
          <mxGeometry y="60" width="160" height="8" as="geometry" />
        </mxCell>
        <mxCell id="CAt87Y8O4JC6d1RtImim-7" value="&amp;lt;&amp;lt;PK&amp;gt;&amp;gt; ID: int&lt;div&gt;&amp;lt;&amp;lt;FK&amp;gt;&amp;gt; UserID: int&lt;/div&gt;" style="text;strokeColor=none;fillColor=none;align=left;verticalAlign=top;spacingLeft=4;spacingRight=4;overflow=hidden;rotatable=0;points=[[0,0.5],[1,0.5]];portConstraint=eastwest;whiteSpace=wrap;html=1;" parent="CAt87Y8O4JC6d1RtImim-4" vertex="1">
          <mxGeometry y="68" width="160" height="42" as="geometry" />
        </mxCell>
        <mxCell id="CAt87Y8O4JC6d1RtImim-8" value="Review" style="swimlane;fontStyle=1;align=center;verticalAlign=top;childLayout=stackLayout;horizontal=1;startSize=26;horizontalStack=0;resizeParent=1;resizeParentMax=0;resizeLast=0;collapsible=1;marginBottom=0;whiteSpace=wrap;html=1;" parent="WIyWlLk6GJQsqaUBKTNV-1" vertex="1">
          <mxGeometry x="-2036" y="1360" width="160" height="130" as="geometry" />
        </mxCell>
        <mxCell id="CAt87Y8O4JC6d1RtImim-9" value="&lt;div&gt;&lt;span style=&quot;background-color: initial;&quot;&gt;Text: text&lt;/span&gt;&lt;/div&gt;&lt;div&gt;CreationDate: datetime&lt;/div&gt;&lt;div&gt;Ranking: int&lt;/div&gt;&lt;div&gt;&lt;br&gt;&lt;/div&gt;" style="text;strokeColor=none;fillColor=none;align=left;verticalAlign=top;spacingLeft=4;spacingRight=4;overflow=hidden;rotatable=0;points=[[0,0.5],[1,0.5]];portConstraint=eastwest;whiteSpace=wrap;html=1;" parent="CAt87Y8O4JC6d1RtImim-8" vertex="1">
          <mxGeometry y="26" width="160" height="54" as="geometry" />
        </mxCell>
        <mxCell id="CAt87Y8O4JC6d1RtImim-10" value="" style="line;strokeWidth=1;fillColor=none;align=left;verticalAlign=middle;spacingTop=-1;spacingLeft=3;spacingRight=3;rotatable=0;labelPosition=right;points=[];portConstraint=eastwest;strokeColor=inherit;" parent="CAt87Y8O4JC6d1RtImim-8" vertex="1">
          <mxGeometry y="80" width="160" height="8" as="geometry" />
        </mxCell>
        <mxCell id="CAt87Y8O4JC6d1RtImim-11" value="&amp;lt;&amp;lt;PK&amp;gt;&amp;gt; ID: int&lt;div&gt;&amp;lt;&amp;lt;FK&amp;gt;&amp;gt; CreatorID: int&lt;/div&gt;" style="text;strokeColor=none;fillColor=none;align=left;verticalAlign=top;spacingLeft=4;spacingRight=4;overflow=hidden;rotatable=0;points=[[0,0.5],[1,0.5]];portConstraint=eastwest;whiteSpace=wrap;html=1;" parent="CAt87Y8O4JC6d1RtImim-8" vertex="1">
          <mxGeometry y="88" width="160" height="42" as="geometry" />
        </mxCell>
        <mxCell id="CAt87Y8O4JC6d1RtImim-36" value="CognitivePart" style="swimlane;fontStyle=1;align=center;verticalAlign=top;childLayout=stackLayout;horizontal=1;startSize=26;horizontalStack=0;resizeParent=1;resizeParentMax=0;resizeLast=0;collapsible=1;marginBottom=0;whiteSpace=wrap;html=1;" parent="WIyWlLk6GJQsqaUBKTNV-1" vertex="1">
          <mxGeometry x="-1796" y="1340" width="160" height="190" as="geometry" />
        </mxCell>
        <mxCell id="CAt87Y8O4JC6d1RtImim-37" value="&lt;div&gt;&lt;span style=&quot;background-color: initial;&quot;&gt;Text: text&lt;/span&gt;&lt;br&gt;&lt;/div&gt;&lt;div&gt;CreationDate: datetime&lt;/div&gt;&lt;div&gt;&lt;span style=&quot;background-color: initial;&quot;&gt;Title: text&lt;/span&gt;&lt;br&gt;&lt;/div&gt;&lt;div&gt;WayOfHandling: text&lt;/div&gt;&lt;div&gt;ClassName: text&lt;/div&gt;&lt;div&gt;IsOfficial: bit&lt;/div&gt;&lt;div&gt;&lt;br&gt;&lt;/div&gt;" style="text;strokeColor=none;fillColor=none;align=left;verticalAlign=top;spacingLeft=4;spacingRight=4;overflow=hidden;rotatable=0;points=[[0,0.5],[1,0.5]];portConstraint=eastwest;whiteSpace=wrap;html=1;" parent="CAt87Y8O4JC6d1RtImim-36" vertex="1">
          <mxGeometry y="26" width="160" height="114" as="geometry" />
        </mxCell>
        <mxCell id="CAt87Y8O4JC6d1RtImim-38" value="" style="line;strokeWidth=1;fillColor=none;align=left;verticalAlign=middle;spacingTop=-1;spacingLeft=3;spacingRight=3;rotatable=0;labelPosition=right;points=[];portConstraint=eastwest;strokeColor=inherit;" parent="CAt87Y8O4JC6d1RtImim-36" vertex="1">
          <mxGeometry y="140" width="160" height="8" as="geometry" />
        </mxCell>
        <mxCell id="CAt87Y8O4JC6d1RtImim-39" value="&amp;lt;&amp;lt;PK&amp;gt;&amp;gt; ID: int&lt;div&gt;&amp;lt;&amp;lt;FK&amp;gt;&amp;gt; CreatorID: int&lt;br&gt;&lt;/div&gt;" style="text;strokeColor=none;fillColor=none;align=left;verticalAlign=top;spacingLeft=4;spacingRight=4;overflow=hidden;rotatable=0;points=[[0,0.5],[1,0.5]];portConstraint=eastwest;whiteSpace=wrap;html=1;" parent="CAt87Y8O4JC6d1RtImim-36" vertex="1">
          <mxGeometry y="148" width="160" height="42" as="geometry" />
        </mxCell>
        <mxCell id="CAt87Y8O4JC6d1RtImim-53" value="ForumPublication" style="swimlane;fontStyle=1;align=center;verticalAlign=top;childLayout=stackLayout;horizontal=1;startSize=26;horizontalStack=0;resizeParent=1;resizeParentMax=0;resizeLast=0;collapsible=1;marginBottom=0;whiteSpace=wrap;html=1;" parent="WIyWlLk6GJQsqaUBKTNV-1" vertex="1">
          <mxGeometry x="-1576" y="880" width="160" height="150" as="geometry" />
        </mxCell>
        <mxCell id="CAt87Y8O4JC6d1RtImim-54" value="&lt;div&gt;&lt;span style=&quot;background-color: initial;&quot;&gt;Text: text&lt;/span&gt;&lt;/div&gt;&lt;div&gt;CreationDate: datetime&lt;/div&gt;&lt;div&gt;Text: text&lt;/div&gt;&lt;div&gt;IsDeleted: bit&lt;/div&gt;&lt;div&gt;&lt;br&gt;&lt;/div&gt;" style="text;strokeColor=none;fillColor=none;align=left;verticalAlign=top;spacingLeft=4;spacingRight=4;overflow=hidden;rotatable=0;points=[[0,0.5],[1,0.5]];portConstraint=eastwest;whiteSpace=wrap;html=1;" parent="CAt87Y8O4JC6d1RtImim-53" vertex="1">
          <mxGeometry y="26" width="160" height="74" as="geometry" />
        </mxCell>
        <mxCell id="CAt87Y8O4JC6d1RtImim-55" value="" style="line;strokeWidth=1;fillColor=none;align=left;verticalAlign=middle;spacingTop=-1;spacingLeft=3;spacingRight=3;rotatable=0;labelPosition=right;points=[];portConstraint=eastwest;strokeColor=inherit;" parent="CAt87Y8O4JC6d1RtImim-53" vertex="1">
          <mxGeometry y="100" width="160" height="8" as="geometry" />
        </mxCell>
        <mxCell id="CAt87Y8O4JC6d1RtImim-56" value="&amp;lt;&amp;lt;PK&amp;gt;&amp;gt; ID: int&lt;div&gt;&amp;lt;&amp;lt;FK&amp;gt;&amp;gt; CreatorID: int&lt;br&gt;&lt;/div&gt;" style="text;strokeColor=none;fillColor=none;align=left;verticalAlign=top;spacingLeft=4;spacingRight=4;overflow=hidden;rotatable=0;points=[[0,0.5],[1,0.5]];portConstraint=eastwest;whiteSpace=wrap;html=1;" parent="CAt87Y8O4JC6d1RtImim-53" vertex="1">
          <mxGeometry y="108" width="160" height="42" as="geometry" />
        </mxCell>
        <mxCell id="H0wqLopW10TmKbg78DOm-40" value="Source" style="swimlane;fontStyle=1;align=center;verticalAlign=top;childLayout=stackLayout;horizontal=1;startSize=26;horizontalStack=0;resizeParent=1;resizeParentMax=0;resizeLast=0;collapsible=1;marginBottom=0;whiteSpace=wrap;html=1;" parent="WIyWlLk6GJQsqaUBKTNV-1" vertex="1">
          <mxGeometry x="-2056" y="810" width="190" height="160" as="geometry" />
        </mxCell>
        <mxCell id="H0wqLopW10TmKbg78DOm-41" value="&lt;div&gt;&lt;span style=&quot;background-color: initial;&quot;&gt;Text: text&lt;/span&gt;&lt;br&gt;&lt;/div&gt;&lt;div&gt;CreationDate: datetime&lt;/div&gt;&lt;div&gt;Title: text&lt;/div&gt;&lt;div&gt;Author: text&lt;/div&gt;&lt;div&gt;IsOfficial: bit&lt;/div&gt;" style="text;strokeColor=none;fillColor=none;align=left;verticalAlign=top;spacingLeft=4;spacingRight=4;overflow=hidden;rotatable=0;points=[[0,0.5],[1,0.5]];portConstraint=eastwest;whiteSpace=wrap;html=1;" parent="H0wqLopW10TmKbg78DOm-40" vertex="1">
          <mxGeometry y="26" width="190" height="84" as="geometry" />
        </mxCell>
        <mxCell id="H0wqLopW10TmKbg78DOm-42" value="" style="line;strokeWidth=1;fillColor=none;align=left;verticalAlign=middle;spacingTop=-1;spacingLeft=3;spacingRight=3;rotatable=0;labelPosition=right;points=[];portConstraint=eastwest;strokeColor=inherit;" parent="H0wqLopW10TmKbg78DOm-40" vertex="1">
          <mxGeometry y="110" width="190" height="8" as="geometry" />
        </mxCell>
        <mxCell id="H0wqLopW10TmKbg78DOm-43" value="&amp;lt;&amp;lt;PK&amp;gt;&amp;gt; ID: int&lt;div&gt;&amp;lt;&amp;lt;FK&amp;gt;&amp;gt; CreatorID: int&lt;/div&gt;" style="text;strokeColor=none;fillColor=none;align=left;verticalAlign=top;spacingLeft=4;spacingRight=4;overflow=hidden;rotatable=0;points=[[0,0.5],[1,0.5]];portConstraint=eastwest;whiteSpace=wrap;html=1;" parent="H0wqLopW10TmKbg78DOm-40" vertex="1">
          <mxGeometry y="118" width="190" height="42" as="geometry" />
        </mxCell>
        <mxCell id="HF5EdESs-gFM-KW1fIXI-3" value="Report" style="swimlane;fontStyle=1;align=center;verticalAlign=top;childLayout=stackLayout;horizontal=1;startSize=26;horizontalStack=0;resizeParent=1;resizeParentMax=0;resizeLast=0;collapsible=1;marginBottom=0;whiteSpace=wrap;html=1;" parent="WIyWlLk6GJQsqaUBKTNV-1" vertex="1">
          <mxGeometry x="-1576" y="1100" width="160" height="190" as="geometry" />
        </mxCell>
        <mxCell id="HF5EdESs-gFM-KW1fIXI-4" value="&lt;div&gt;&lt;span style=&quot;background-color: initial;&quot;&gt;Text: text&lt;/span&gt;&lt;/div&gt;&lt;div&gt;CreationDate: datetime&lt;/div&gt;&lt;div&gt;&lt;span style=&quot;background-color: initial;&quot;&gt;Reason: text&lt;/span&gt;&lt;/div&gt;&lt;div&gt;ReportedPublicationType: text&lt;/div&gt;" style="text;strokeColor=none;fillColor=none;align=left;verticalAlign=top;spacingLeft=4;spacingRight=4;overflow=hidden;rotatable=0;points=[[0,0.5],[1,0.5]];portConstraint=eastwest;whiteSpace=wrap;html=1;" parent="HF5EdESs-gFM-KW1fIXI-3" vertex="1">
          <mxGeometry y="26" width="160" height="84" as="geometry" />
        </mxCell>
        <mxCell id="HF5EdESs-gFM-KW1fIXI-5" value="" style="line;strokeWidth=1;fillColor=none;align=left;verticalAlign=middle;spacingTop=-1;spacingLeft=3;spacingRight=3;rotatable=0;labelPosition=right;points=[];portConstraint=eastwest;strokeColor=inherit;" parent="HF5EdESs-gFM-KW1fIXI-3" vertex="1">
          <mxGeometry y="110" width="160" height="8" as="geometry" />
        </mxCell>
        <mxCell id="HF5EdESs-gFM-KW1fIXI-6" value="&amp;lt;&amp;lt;PK&amp;gt;&amp;gt; ID: in&lt;span style=&quot;background-color: initial;&quot;&gt;t&lt;/span&gt;&lt;div&gt;&amp;lt;&amp;lt;FK&amp;gt;&amp;gt; CreatorID: int&lt;span style=&quot;background-color: initial;&quot;&gt;&lt;br&gt;&lt;/span&gt;&lt;/div&gt;&lt;div&gt;&amp;lt;&amp;lt;PK&amp;gt;&amp;gt; ReportedPublicationID: int&lt;/div&gt;" style="text;strokeColor=none;fillColor=none;align=left;verticalAlign=top;spacingLeft=4;spacingRight=4;overflow=hidden;rotatable=0;points=[[0,0.5],[1,0.5]];portConstraint=eastwest;whiteSpace=wrap;html=1;" parent="HF5EdESs-gFM-KW1fIXI-3" vertex="1">
          <mxGeometry y="118" width="160" height="72" as="geometry" />
        </mxCell>
        <mxCell id="O_dw3LHJavpmpE3vmrLS-12" value="PathStage" style="swimlane;fontStyle=1;align=center;verticalAlign=top;childLayout=stackLayout;horizontal=1;startSize=26;horizontalStack=0;resizeParent=1;resizeParentMax=0;resizeLast=0;collapsible=1;marginBottom=0;whiteSpace=wrap;html=1;" parent="WIyWlLk6GJQsqaUBKTNV-1" vertex="1">
          <mxGeometry x="-2300" y="1186" width="160" height="130" as="geometry" />
        </mxCell>
        <mxCell id="O_dw3LHJavpmpE3vmrLS-13" value="&lt;div&gt;&lt;span style=&quot;background-color: initial;&quot;&gt;Place: int&lt;/span&gt;&lt;br&gt;&lt;/div&gt;&lt;div&gt;&lt;span style=&quot;background-color: initial;&quot;&gt;ActionType: text&lt;/span&gt;&lt;/div&gt;" style="text;strokeColor=none;fillColor=none;align=left;verticalAlign=top;spacingLeft=4;spacingRight=4;overflow=hidden;rotatable=0;points=[[0,0.5],[1,0.5]];portConstraint=eastwest;whiteSpace=wrap;html=1;" parent="O_dw3LHJavpmpE3vmrLS-12" vertex="1">
          <mxGeometry y="26" width="160" height="34" as="geometry" />
        </mxCell>
        <mxCell id="O_dw3LHJavpmpE3vmrLS-14" value="" style="line;strokeWidth=1;fillColor=none;align=left;verticalAlign=middle;spacingTop=-1;spacingLeft=3;spacingRight=3;rotatable=0;labelPosition=right;points=[];portConstraint=eastwest;strokeColor=inherit;" parent="O_dw3LHJavpmpE3vmrLS-12" vertex="1">
          <mxGeometry y="60" width="160" height="8" as="geometry" />
        </mxCell>
        <mxCell id="O_dw3LHJavpmpE3vmrLS-15" value="&amp;lt;&amp;lt;PK&amp;gt;&amp;gt; ID: int&lt;div&gt;&amp;lt;&amp;lt;FK&amp;gt;&amp;gt; PathID: int&lt;/div&gt;&lt;div&gt;&amp;lt;&amp;lt;FK&amp;gt;&amp;gt; ActionID: int&lt;/div&gt;" style="text;strokeColor=none;fillColor=none;align=left;verticalAlign=top;spacingLeft=4;spacingRight=4;overflow=hidden;rotatable=0;points=[[0,0.5],[1,0.5]];portConstraint=eastwest;whiteSpace=wrap;html=1;" parent="O_dw3LHJavpmpE3vmrLS-12" vertex="1">
          <mxGeometry y="68" width="160" height="62" as="geometry" />
        </mxCell>
        <mxCell id="O_dw3LHJavpmpE3vmrLS-37" value="Content" style="swimlane;fontStyle=1;align=center;verticalAlign=top;childLayout=stackLayout;horizontal=1;startSize=26;horizontalStack=0;resizeParent=1;resizeParentMax=0;resizeLast=0;collapsible=1;marginBottom=0;whiteSpace=wrap;html=1;" parent="WIyWlLk6GJQsqaUBKTNV-1" vertex="1">
          <mxGeometry x="-1796" y="670" width="160" height="180" as="geometry" />
        </mxCell>
        <mxCell id="O_dw3LHJavpmpE3vmrLS-38" value="&lt;div&gt;&lt;span style=&quot;background-color: initial;&quot;&gt;Text: text&lt;/span&gt;&lt;br&gt;&lt;/div&gt;&lt;div&gt;CreationDate: datetime&lt;/div&gt;&lt;div&gt;&lt;span style=&quot;background-color: initial;&quot;&gt;Title: text&lt;/span&gt;&lt;/div&gt;&lt;div&gt;ClassName: text&lt;/div&gt;&lt;div&gt;Photo: varbinary(MAX)&lt;/div&gt;&lt;div&gt;IsOfficial: bit&lt;/div&gt;" style="text;strokeColor=none;fillColor=none;align=left;verticalAlign=top;spacingLeft=4;spacingRight=4;overflow=hidden;rotatable=0;points=[[0,0.5],[1,0.5]];portConstraint=eastwest;whiteSpace=wrap;html=1;" parent="O_dw3LHJavpmpE3vmrLS-37" vertex="1">
          <mxGeometry y="26" width="160" height="104" as="geometry" />
        </mxCell>
        <mxCell id="O_dw3LHJavpmpE3vmrLS-39" value="" style="line;strokeWidth=1;fillColor=none;align=left;verticalAlign=middle;spacingTop=-1;spacingLeft=3;spacingRight=3;rotatable=0;labelPosition=right;points=[];portConstraint=eastwest;strokeColor=inherit;" parent="O_dw3LHJavpmpE3vmrLS-37" vertex="1">
          <mxGeometry y="130" width="160" height="8" as="geometry" />
        </mxCell>
        <mxCell id="O_dw3LHJavpmpE3vmrLS-40" value="&amp;lt;&amp;lt;PK&amp;gt;&amp;gt; ID: int&lt;div&gt;&amp;lt;&amp;lt;FK&amp;gt;&amp;gt; CreatorID: int&lt;/div&gt;" style="text;strokeColor=none;fillColor=none;align=left;verticalAlign=top;spacingLeft=4;spacingRight=4;overflow=hidden;rotatable=0;points=[[0,0.5],[1,0.5]];portConstraint=eastwest;whiteSpace=wrap;html=1;" parent="O_dw3LHJavpmpE3vmrLS-37" vertex="1">
          <mxGeometry y="138" width="160" height="42" as="geometry" />
        </mxCell>
        <mxCell id="IdvPf6eH54fY4JUCfseX-4" value="AdminRequest" style="swimlane;fontStyle=1;align=center;verticalAlign=top;childLayout=stackLayout;horizontal=1;startSize=26;horizontalStack=0;resizeParent=1;resizeParentMax=0;resizeLast=0;collapsible=1;marginBottom=0;whiteSpace=wrap;html=1;" parent="WIyWlLk6GJQsqaUBKTNV-1" vertex="1">
          <mxGeometry x="-2041" y="1010" width="160" height="130" as="geometry" />
        </mxCell>
        <mxCell id="IdvPf6eH54fY4JUCfseX-5" value="&lt;div&gt;&lt;span style=&quot;background-color: initial;&quot;&gt;Text: text&lt;/span&gt;&lt;br&gt;&lt;/div&gt;&lt;div&gt;CreationDate: datetime&lt;/div&gt;&lt;div&gt;IsOffer: bit&lt;/div&gt;&lt;div&gt;&lt;br&gt;&lt;/div&gt;" style="text;strokeColor=none;fillColor=none;align=left;verticalAlign=top;spacingLeft=4;spacingRight=4;overflow=hidden;rotatable=0;points=[[0,0.5],[1,0.5]];portConstraint=eastwest;whiteSpace=wrap;html=1;" parent="IdvPf6eH54fY4JUCfseX-4" vertex="1">
          <mxGeometry y="26" width="160" height="54" as="geometry" />
        </mxCell>
        <mxCell id="IdvPf6eH54fY4JUCfseX-6" value="" style="line;strokeWidth=1;fillColor=none;align=left;verticalAlign=middle;spacingTop=-1;spacingLeft=3;spacingRight=3;rotatable=0;labelPosition=right;points=[];portConstraint=eastwest;strokeColor=inherit;" parent="IdvPf6eH54fY4JUCfseX-4" vertex="1">
          <mxGeometry y="80" width="160" height="8" as="geometry" />
        </mxCell>
        <mxCell id="IdvPf6eH54fY4JUCfseX-7" value="&amp;lt;&amp;lt;PK&amp;gt;&amp;gt; ID: int&lt;div&gt;&amp;lt;&amp;lt;FK&amp;gt;&amp;gt; UserID: int&lt;br&gt;&lt;/div&gt;" style="text;strokeColor=none;fillColor=none;align=left;verticalAlign=top;spacingLeft=4;spacingRight=4;overflow=hidden;rotatable=0;points=[[0,0.5],[1,0.5]];portConstraint=eastwest;whiteSpace=wrap;html=1;" parent="IdvPf6eH54fY4JUCfseX-4" vertex="1">
          <mxGeometry y="88" width="160" height="42" as="geometry" />
        </mxCell>
        <mxCell id="IdvPf6eH54fY4JUCfseX-15" value="EmailProof" style="swimlane;fontStyle=1;align=center;verticalAlign=top;childLayout=stackLayout;horizontal=1;startSize=26;horizontalStack=0;resizeParent=1;resizeParentMax=0;resizeLast=0;collapsible=1;marginBottom=0;whiteSpace=wrap;html=1;" parent="WIyWlLk6GJQsqaUBKTNV-1" vertex="1">
          <mxGeometry x="-2041" y="620" width="160" height="140" as="geometry" />
        </mxCell>
        <mxCell id="IdvPf6eH54fY4JUCfseX-16" value="&lt;div&gt;&lt;span style=&quot;background-color: initial;&quot;&gt;Code: int&lt;/span&gt;&lt;br&gt;&lt;/div&gt;&lt;div&gt;CreationDate: int&lt;/div&gt;" style="text;strokeColor=none;fillColor=none;align=left;verticalAlign=top;spacingLeft=4;spacingRight=4;overflow=hidden;rotatable=0;points=[[0,0.5],[1,0.5]];portConstraint=eastwest;whiteSpace=wrap;html=1;" parent="IdvPf6eH54fY4JUCfseX-15" vertex="1">
          <mxGeometry y="26" width="160" height="64" as="geometry" />
        </mxCell>
        <mxCell id="IdvPf6eH54fY4JUCfseX-17" value="" style="line;strokeWidth=1;fillColor=none;align=left;verticalAlign=middle;spacingTop=-1;spacingLeft=3;spacingRight=3;rotatable=0;labelPosition=right;points=[];portConstraint=eastwest;strokeColor=inherit;" parent="IdvPf6eH54fY4JUCfseX-15" vertex="1">
          <mxGeometry y="90" width="160" height="8" as="geometry" />
        </mxCell>
        <mxCell id="IdvPf6eH54fY4JUCfseX-18" value="&amp;lt;&amp;lt;PK&amp;gt;&amp;gt; ID: int&lt;div&gt;&amp;lt;&amp;lt;FK&amp;gt;&amp;gt; Email: text&lt;/div&gt;" style="text;strokeColor=none;fillColor=none;align=left;verticalAlign=top;spacingLeft=4;spacingRight=4;overflow=hidden;rotatable=0;points=[[0,0.5],[1,0.5]];portConstraint=eastwest;whiteSpace=wrap;html=1;" parent="IdvPf6eH54fY4JUCfseX-15" vertex="1">
          <mxGeometry y="98" width="160" height="42" as="geometry" />
        </mxCell>
        <mxCell id="C7usVuCC4-y3hJ7hufo2-0" value="PublishOfficial" style="swimlane;fontStyle=1;align=center;verticalAlign=top;childLayout=stackLayout;horizontal=1;startSize=26;horizontalStack=0;resizeParent=1;resizeParentMax=0;resizeLast=0;collapsible=1;marginBottom=0;whiteSpace=wrap;html=1;" parent="WIyWlLk6GJQsqaUBKTNV-1" vertex="1">
          <mxGeometry x="-2266" y="605" width="160" height="170" as="geometry" />
        </mxCell>
        <mxCell id="C7usVuCC4-y3hJ7hufo2-1" value="&lt;div&gt;&lt;span style=&quot;background-color: initial;&quot;&gt;Text: string&lt;/span&gt;&lt;br&gt;&lt;/div&gt;&lt;div&gt;CreationDate: DateTime&lt;/div&gt;&lt;div&gt;PublicationType: text&lt;/div&gt;" style="text;strokeColor=none;fillColor=none;align=left;verticalAlign=top;spacingLeft=4;spacingRight=4;overflow=hidden;rotatable=0;points=[[0,0.5],[1,0.5]];portConstraint=eastwest;whiteSpace=wrap;html=1;" parent="C7usVuCC4-y3hJ7hufo2-0" vertex="1">
          <mxGeometry y="26" width="160" height="64" as="geometry" />
        </mxCell>
        <mxCell id="C7usVuCC4-y3hJ7hufo2-2" value="" style="line;strokeWidth=1;fillColor=none;align=left;verticalAlign=middle;spacingTop=-1;spacingLeft=3;spacingRight=3;rotatable=0;labelPosition=right;points=[];portConstraint=eastwest;strokeColor=inherit;" parent="C7usVuCC4-y3hJ7hufo2-0" vertex="1">
          <mxGeometry y="90" width="160" height="8" as="geometry" />
        </mxCell>
        <mxCell id="C7usVuCC4-y3hJ7hufo2-3" value="&amp;lt;&amp;lt;PK&amp;gt;&amp;gt; ID: int&lt;div&gt;&amp;lt;&amp;lt;FK&amp;gt;&amp;gt; PublicationID: int&lt;/div&gt;" style="text;strokeColor=none;fillColor=none;align=left;verticalAlign=top;spacingLeft=4;spacingRight=4;overflow=hidden;rotatable=0;points=[[0,0.5],[1,0.5]];portConstraint=eastwest;whiteSpace=wrap;html=1;" parent="C7usVuCC4-y3hJ7hufo2-0" vertex="1">
          <mxGeometry y="98" width="160" height="72" as="geometry" />
        </mxCell>
        <mxCell id="xpbYfteFqBrhIBxW7x0K-1" value="SourceLink" style="swimlane;fontStyle=1;align=center;verticalAlign=top;childLayout=stackLayout;horizontal=1;startSize=26;horizontalStack=0;resizeParent=1;resizeParentMax=0;resizeLast=0;collapsible=1;marginBottom=0;whiteSpace=wrap;html=1;" parent="WIyWlLk6GJQsqaUBKTNV-1" vertex="1">
          <mxGeometry x="-2330" y="839" width="160" height="86" as="geometry" />
        </mxCell>
        <mxCell id="xpbYfteFqBrhIBxW7x0K-2" value="Link: text" style="text;strokeColor=none;fillColor=none;align=left;verticalAlign=top;spacingLeft=4;spacingRight=4;overflow=hidden;rotatable=0;points=[[0,0.5],[1,0.5]];portConstraint=eastwest;whiteSpace=wrap;html=1;" parent="xpbYfteFqBrhIBxW7x0K-1" vertex="1">
          <mxGeometry y="26" width="160" height="26" as="geometry" />
        </mxCell>
        <mxCell id="xpbYfteFqBrhIBxW7x0K-3" value="" style="line;strokeWidth=1;fillColor=none;align=left;verticalAlign=middle;spacingTop=-1;spacingLeft=3;spacingRight=3;rotatable=0;labelPosition=right;points=[];portConstraint=eastwest;strokeColor=inherit;" parent="xpbYfteFqBrhIBxW7x0K-1" vertex="1">
          <mxGeometry y="52" width="160" height="8" as="geometry" />
        </mxCell>
        <mxCell id="xpbYfteFqBrhIBxW7x0K-4" value="&amp;lt;&amp;lt;FK&amp;gt;&amp;gt; SourceID: int" style="text;strokeColor=none;fillColor=none;align=left;verticalAlign=top;spacingLeft=4;spacingRight=4;overflow=hidden;rotatable=0;points=[[0,0.5],[1,0.5]];portConstraint=eastwest;whiteSpace=wrap;html=1;" parent="xpbYfteFqBrhIBxW7x0K-1" vertex="1">
          <mxGeometry y="60" width="160" height="26" as="geometry" />
        </mxCell>
        <mxCell id="xpbYfteFqBrhIBxW7x0K-5" value="WatchedPublications" style="swimlane;fontStyle=1;align=center;verticalAlign=top;childLayout=stackLayout;horizontal=1;startSize=26;horizontalStack=0;resizeParent=1;resizeParentMax=0;resizeLast=0;collapsible=1;marginBottom=0;whiteSpace=wrap;html=1;" parent="WIyWlLk6GJQsqaUBKTNV-1" vertex="1">
          <mxGeometry x="-1576" y="724" width="160" height="120" as="geometry" />
        </mxCell>
        <mxCell id="xpbYfteFqBrhIBxW7x0K-6" value="&amp;nbsp;" style="text;strokeColor=none;fillColor=none;align=left;verticalAlign=top;spacingLeft=4;spacingRight=4;overflow=hidden;rotatable=0;points=[[0,0.5],[1,0.5]];portConstraint=eastwest;whiteSpace=wrap;html=1;" parent="xpbYfteFqBrhIBxW7x0K-5" vertex="1">
          <mxGeometry y="26" width="160" height="26" as="geometry" />
        </mxCell>
        <mxCell id="xpbYfteFqBrhIBxW7x0K-7" value="" style="line;strokeWidth=1;fillColor=none;align=left;verticalAlign=middle;spacingTop=-1;spacingLeft=3;spacingRight=3;rotatable=0;labelPosition=right;points=[];portConstraint=eastwest;strokeColor=inherit;" parent="xpbYfteFqBrhIBxW7x0K-5" vertex="1">
          <mxGeometry y="52" width="160" height="8" as="geometry" />
        </mxCell>
        <mxCell id="xpbYfteFqBrhIBxW7x0K-8" value="&amp;lt;&amp;lt;FK&amp;gt;&amp;gt; WatchedPublicationID: int&lt;div&gt;&amp;lt;&amp;lt;FK&amp;gt;&amp;gt; UserID: int&lt;/div&gt;" style="text;strokeColor=none;fillColor=none;align=left;verticalAlign=top;spacingLeft=4;spacingRight=4;overflow=hidden;rotatable=0;points=[[0,0.5],[1,0.5]];portConstraint=eastwest;whiteSpace=wrap;html=1;" parent="xpbYfteFqBrhIBxW7x0K-5" vertex="1">
          <mxGeometry y="60" width="160" height="60" as="geometry" />
        </mxCell>
        <mxCell id="xpbYfteFqBrhIBxW7x0K-9" value="ForumKeywords" style="swimlane;fontStyle=1;align=center;verticalAlign=top;childLayout=stackLayout;horizontal=1;startSize=26;horizontalStack=0;resizeParent=1;resizeParentMax=0;resizeLast=0;collapsible=1;marginBottom=0;whiteSpace=wrap;html=1;" parent="WIyWlLk6GJQsqaUBKTNV-1" vertex="1">
          <mxGeometry x="-1334" y="895" width="160" height="120" as="geometry" />
        </mxCell>
        <mxCell id="xpbYfteFqBrhIBxW7x0K-10" value="Keyword: text&lt;div&gt;Ranking: int&lt;/div&gt;" style="text;strokeColor=none;fillColor=none;align=left;verticalAlign=top;spacingLeft=4;spacingRight=4;overflow=hidden;rotatable=0;points=[[0,0.5],[1,0.5]];portConstraint=eastwest;whiteSpace=wrap;html=1;" parent="xpbYfteFqBrhIBxW7x0K-9" vertex="1">
          <mxGeometry y="26" width="160" height="44" as="geometry" />
        </mxCell>
        <mxCell id="xpbYfteFqBrhIBxW7x0K-11" value="" style="line;strokeWidth=1;fillColor=none;align=left;verticalAlign=middle;spacingTop=-1;spacingLeft=3;spacingRight=3;rotatable=0;labelPosition=right;points=[];portConstraint=eastwest;strokeColor=inherit;" parent="xpbYfteFqBrhIBxW7x0K-9" vertex="1">
          <mxGeometry y="70" width="160" height="8" as="geometry" />
        </mxCell>
        <mxCell id="xpbYfteFqBrhIBxW7x0K-12" value="&amp;lt;&amp;lt;FK&amp;gt;&amp;gt; ForumPublicationID: int" style="text;strokeColor=none;fillColor=none;align=left;verticalAlign=top;spacingLeft=4;spacingRight=4;overflow=hidden;rotatable=0;points=[[0,0.5],[1,0.5]];portConstraint=eastwest;whiteSpace=wrap;html=1;" parent="xpbYfteFqBrhIBxW7x0K-9" vertex="1">
          <mxGeometry y="78" width="160" height="42" as="geometry" />
        </mxCell>
        <mxCell id="xpbYfteFqBrhIBxW7x0K-13" value="" style="endArrow=none;html=1;rounded=0;entryX=0.5;entryY=1;entryDx=0;entryDy=0;entryPerimeter=0;exitX=0.5;exitY=0;exitDx=0;exitDy=0;" parent="WIyWlLk6GJQsqaUBKTNV-1" source="CAt87Y8O4JC6d1RtImim-36" target="hVGt1LhpxKJkZvYj-mMZ-3" edge="1">
          <mxGeometry width="50" height="50" relative="1" as="geometry">
            <mxPoint x="-1746" y="1270" as="sourcePoint" />
            <mxPoint x="-1696" y="1220" as="targetPoint" />
          </mxGeometry>
        </mxCell>
        <mxCell id="xpbYfteFqBrhIBxW7x0K-14" value="" style="endArrow=none;html=1;rounded=0;exitX=0.5;exitY=0;exitDx=0;exitDy=0;entryX=0.25;entryY=1;entryDx=0;entryDy=0;entryPerimeter=0;" parent="WIyWlLk6GJQsqaUBKTNV-1" source="CAt87Y8O4JC6d1RtImim-8" target="hVGt1LhpxKJkZvYj-mMZ-3" edge="1">
          <mxGeometry width="50" height="50" relative="1" as="geometry">
            <mxPoint x="-1806" y="1290" as="sourcePoint" />
            <mxPoint x="-1756" y="1180" as="targetPoint" />
            <Array as="points">
              <mxPoint x="-1956" y="1320" />
              <mxPoint x="-1756" y="1320" />
            </Array>
          </mxGeometry>
        </mxCell>
        <mxCell id="xpbYfteFqBrhIBxW7x0K-15" value="" style="endArrow=none;html=1;rounded=0;exitX=1;exitY=1;exitDx=0;exitDy=0;exitPerimeter=0;entryX=0;entryY=0.5;entryDx=0;entryDy=0;" parent="WIyWlLk6GJQsqaUBKTNV-1" source="CAt87Y8O4JC6d1RtImim-5" target="hVGt1LhpxKJkZvYj-mMZ-3" edge="1">
          <mxGeometry width="50" height="50" relative="1" as="geometry">
            <mxPoint x="-1836" y="1260" as="sourcePoint" />
            <mxPoint x="-1786" y="1210" as="targetPoint" />
            <Array as="points">
              <mxPoint x="-1826" y="1246" />
              <mxPoint x="-1826" y="1154" />
            </Array>
          </mxGeometry>
        </mxCell>
        <mxCell id="xpbYfteFqBrhIBxW7x0K-16" value="" style="endArrow=none;html=1;rounded=0;exitX=1;exitY=0.5;exitDx=0;exitDy=0;entryX=0;entryY=0.5;entryDx=0;entryDy=0;" parent="WIyWlLk6GJQsqaUBKTNV-1" source="IdvPf6eH54fY4JUCfseX-5" target="hVGt1LhpxKJkZvYj-mMZ-1" edge="1">
          <mxGeometry width="50" height="50" relative="1" as="geometry">
            <mxPoint x="-1806" y="960" as="sourcePoint" />
            <mxPoint x="-1756" y="910" as="targetPoint" />
          </mxGeometry>
        </mxCell>
        <mxCell id="xpbYfteFqBrhIBxW7x0K-26" value="1" style="edgeLabel;html=1;align=center;verticalAlign=middle;resizable=0;points=[];" parent="xpbYfteFqBrhIBxW7x0K-16" vertex="1" connectable="0">
          <mxGeometry x="0.2" y="-3" relative="1" as="geometry">
            <mxPoint x="24" y="-16" as="offset" />
          </mxGeometry>
        </mxCell>
        <mxCell id="xpbYfteFqBrhIBxW7x0K-38" value="0..*" style="edgeLabel;html=1;align=center;verticalAlign=middle;resizable=0;points=[];" parent="xpbYfteFqBrhIBxW7x0K-16" vertex="1" connectable="0">
          <mxGeometry x="-0.1059" y="-2" relative="1" as="geometry">
            <mxPoint x="-23" y="-15" as="offset" />
          </mxGeometry>
        </mxCell>
        <mxCell id="xpbYfteFqBrhIBxW7x0K-17" value="" style="endArrow=none;html=1;rounded=0;exitX=1;exitY=0.5;exitDx=0;exitDy=0;entryX=0;entryY=0.201;entryDx=0;entryDy=0;entryPerimeter=0;" parent="WIyWlLk6GJQsqaUBKTNV-1" source="H0wqLopW10TmKbg78DOm-41" target="hVGt1LhpxKJkZvYj-mMZ-1" edge="1">
          <mxGeometry width="50" height="50" relative="1" as="geometry">
            <mxPoint x="-1756" y="950" as="sourcePoint" />
            <mxPoint x="-1806" y="1023" as="targetPoint" />
            <Array as="points">
              <mxPoint x="-1836" y="878" />
              <mxPoint x="-1836" y="1023" />
            </Array>
          </mxGeometry>
        </mxCell>
        <mxCell id="xpbYfteFqBrhIBxW7x0K-18" value="" style="endArrow=none;html=1;rounded=0;exitX=1;exitY=0.5;exitDx=0;exitDy=0;entryX=0.15;entryY=-0.005;entryDx=0;entryDy=0;entryPerimeter=0;" parent="WIyWlLk6GJQsqaUBKTNV-1" source="IdvPf6eH54fY4JUCfseX-16" target="hVGt1LhpxKJkZvYj-mMZ-0" edge="1">
          <mxGeometry width="50" height="50" relative="1" as="geometry">
            <mxPoint x="-1626" y="550" as="sourcePoint" />
            <mxPoint x="-1576" y="500" as="targetPoint" />
            <Array as="points">
              <mxPoint x="-1856" y="678" />
              <mxPoint x="-1856" y="850" />
              <mxPoint x="-1816" y="850" />
              <mxPoint x="-1816" y="910" />
              <mxPoint x="-1772" y="910" />
            </Array>
          </mxGeometry>
        </mxCell>
        <mxCell id="xpbYfteFqBrhIBxW7x0K-19" value="" style="endArrow=none;html=1;rounded=0;exitX=0.5;exitY=1;exitDx=0;exitDy=0;exitPerimeter=0;entryX=0.5;entryY=0;entryDx=0;entryDy=0;" parent="WIyWlLk6GJQsqaUBKTNV-1" source="O_dw3LHJavpmpE3vmrLS-40" target="hVGt1LhpxKJkZvYj-mMZ-0" edge="1">
          <mxGeometry width="50" height="50" relative="1" as="geometry">
            <mxPoint x="-1526" y="630" as="sourcePoint" />
            <mxPoint x="-1476" y="580" as="targetPoint" />
          </mxGeometry>
        </mxCell>
        <mxCell id="xpbYfteFqBrhIBxW7x0K-20" value="" style="endArrow=none;html=1;rounded=0;entryX=0;entryY=0.5;entryDx=0;entryDy=0;exitX=0.85;exitY=-0.005;exitDx=0;exitDy=0;exitPerimeter=0;" parent="WIyWlLk6GJQsqaUBKTNV-1" source="hVGt1LhpxKJkZvYj-mMZ-0" target="xpbYfteFqBrhIBxW7x0K-8" edge="1">
          <mxGeometry width="50" height="50" relative="1" as="geometry">
            <mxPoint x="-1656" y="920" as="sourcePoint" />
            <mxPoint x="-1606" y="870" as="targetPoint" />
            <Array as="points">
              <mxPoint x="-1660" y="890" />
              <mxPoint x="-1616" y="890" />
              <mxPoint x="-1616" y="814" />
            </Array>
          </mxGeometry>
        </mxCell>
        <mxCell id="xpbYfteFqBrhIBxW7x0K-21" value="" style="endArrow=none;html=1;rounded=0;entryX=0;entryY=0.5;entryDx=0;entryDy=0;exitX=1;exitY=0;exitDx=0;exitDy=0;exitPerimeter=0;" parent="WIyWlLk6GJQsqaUBKTNV-1" source="hVGt1LhpxKJkZvYj-mMZ-1" target="CAt87Y8O4JC6d1RtImim-54" edge="1">
          <mxGeometry width="50" height="50" relative="1" as="geometry">
            <mxPoint x="-1596" y="1070" as="sourcePoint" />
            <mxPoint x="-1306" y="1000" as="targetPoint" />
            <Array as="points">
              <mxPoint x="-1606" y="996" />
              <mxPoint x="-1606" y="943" />
            </Array>
          </mxGeometry>
        </mxCell>
        <mxCell id="xpbYfteFqBrhIBxW7x0K-22" value="" style="endArrow=none;html=1;rounded=0;entryX=0;entryY=0.095;entryDx=0;entryDy=0;entryPerimeter=0;exitX=1;exitY=0.896;exitDx=0;exitDy=0;exitPerimeter=0;" parent="WIyWlLk6GJQsqaUBKTNV-1" source="hVGt1LhpxKJkZvYj-mMZ-1" target="HF5EdESs-gFM-KW1fIXI-4" edge="1">
          <mxGeometry width="50" height="50" relative="1" as="geometry">
            <mxPoint x="-1606" y="1100" as="sourcePoint" />
            <mxPoint x="-1506" y="980" as="targetPoint" />
            <Array as="points">
              <mxPoint x="-1596" y="1116" />
              <mxPoint x="-1596" y="1134" />
            </Array>
          </mxGeometry>
        </mxCell>
        <mxCell id="xpbYfteFqBrhIBxW7x0K-23" value="" style="endArrow=none;html=1;rounded=0;exitX=0.5;exitY=0;exitDx=0;exitDy=0;entryX=0.75;entryY=1;entryDx=0;entryDy=0;entryPerimeter=0;" parent="WIyWlLk6GJQsqaUBKTNV-1" source="hVGt1LhpxKJkZvYj-mMZ-4" target="hVGt1LhpxKJkZvYj-mMZ-3" edge="1">
          <mxGeometry width="50" height="50" relative="1" as="geometry">
            <mxPoint x="-1226" y="1160" as="sourcePoint" />
            <mxPoint x="-1176" y="1110" as="targetPoint" />
            <Array as="points">
              <mxPoint x="-1496" y="1320" />
              <mxPoint x="-1676" y="1320" />
            </Array>
          </mxGeometry>
        </mxCell>
        <mxCell id="xpbYfteFqBrhIBxW7x0K-27" value="1" style="edgeLabel;html=1;align=center;verticalAlign=middle;resizable=0;points=[];" parent="WIyWlLk6GJQsqaUBKTNV-1" vertex="1" connectable="0">
          <mxGeometry x="-1806" y="1010" as="geometry" />
        </mxCell>
        <mxCell id="xpbYfteFqBrhIBxW7x0K-28" value="1" style="edgeLabel;html=1;align=center;verticalAlign=middle;resizable=0;points=[];" parent="WIyWlLk6GJQsqaUBKTNV-1" vertex="1" connectable="0">
          <mxGeometry x="-1786" y="960" as="geometry" />
        </mxCell>
        <mxCell id="xpbYfteFqBrhIBxW7x0K-29" value="1" style="edgeLabel;html=1;align=center;verticalAlign=middle;resizable=0;points=[];" parent="WIyWlLk6GJQsqaUBKTNV-1" vertex="1" connectable="0">
          <mxGeometry x="-1706" y="960" as="geometry" />
        </mxCell>
        <mxCell id="xpbYfteFqBrhIBxW7x0K-30" value="1" style="edgeLabel;html=1;align=center;verticalAlign=middle;resizable=0;points=[];" parent="WIyWlLk6GJQsqaUBKTNV-1" vertex="1" connectable="0">
          <mxGeometry x="-1646" y="960" as="geometry" />
        </mxCell>
        <mxCell id="xpbYfteFqBrhIBxW7x0K-31" value="1" style="edgeLabel;html=1;align=center;verticalAlign=middle;resizable=0;points=[];" parent="WIyWlLk6GJQsqaUBKTNV-1" vertex="1" connectable="0">
          <mxGeometry x="-1626" y="1100" as="geometry" />
        </mxCell>
        <mxCell id="xpbYfteFqBrhIBxW7x0K-32" value="1" style="edgeLabel;html=1;align=center;verticalAlign=middle;resizable=0;points=[];" parent="WIyWlLk6GJQsqaUBKTNV-1" vertex="1" connectable="0">
          <mxGeometry x="-1666" y="1186" as="geometry" />
        </mxCell>
        <mxCell id="xpbYfteFqBrhIBxW7x0K-33" value="1" style="edgeLabel;html=1;align=center;verticalAlign=middle;resizable=0;points=[];" parent="WIyWlLk6GJQsqaUBKTNV-1" vertex="1" connectable="0">
          <mxGeometry x="-1706" y="1186" as="geometry" />
        </mxCell>
        <mxCell id="xpbYfteFqBrhIBxW7x0K-34" value="1" style="edgeLabel;html=1;align=center;verticalAlign=middle;resizable=0;points=[];" parent="WIyWlLk6GJQsqaUBKTNV-1" vertex="1" connectable="0">
          <mxGeometry x="-1746" y="1186" as="geometry" />
        </mxCell>
        <mxCell id="xpbYfteFqBrhIBxW7x0K-35" value="1" style="edgeLabel;html=1;align=center;verticalAlign=middle;resizable=0;points=[];" parent="WIyWlLk6GJQsqaUBKTNV-1" vertex="1" connectable="0">
          <mxGeometry x="-1806" y="1170" as="geometry" />
        </mxCell>
        <mxCell id="xpbYfteFqBrhIBxW7x0K-39" value="0..*" style="edgeLabel;html=1;align=center;verticalAlign=middle;resizable=0;points=[];" parent="WIyWlLk6GJQsqaUBKTNV-1" vertex="1" connectable="0">
          <mxGeometry x="-1856" y="890" as="geometry" />
        </mxCell>
        <mxCell id="xpbYfteFqBrhIBxW7x0K-40" value="0..*" style="edgeLabel;html=1;align=center;verticalAlign=middle;resizable=0;points=[];" parent="WIyWlLk6GJQsqaUBKTNV-1" vertex="1" connectable="0">
          <mxGeometry x="-1706" y="860" as="geometry" />
        </mxCell>
        <mxCell id="xpbYfteFqBrhIBxW7x0K-41" value="0..*" style="edgeLabel;html=1;align=center;verticalAlign=middle;resizable=0;points=[];" parent="WIyWlLk6GJQsqaUBKTNV-1" vertex="1" connectable="0">
          <mxGeometry x="-1596" y="827" as="geometry" />
        </mxCell>
        <mxCell id="xpbYfteFqBrhIBxW7x0K-42" value="0..*" style="edgeLabel;html=1;align=center;verticalAlign=middle;resizable=0;points=[];" parent="WIyWlLk6GJQsqaUBKTNV-1" vertex="1" connectable="0">
          <mxGeometry x="-1596" y="955" as="geometry" />
        </mxCell>
        <mxCell id="xpbYfteFqBrhIBxW7x0K-43" value="0..*" style="edgeLabel;html=1;align=center;verticalAlign=middle;resizable=0;points=[];" parent="WIyWlLk6GJQsqaUBKTNV-1" vertex="1" connectable="0">
          <mxGeometry x="-1586" y="1120" as="geometry" />
        </mxCell>
        <mxCell id="xpbYfteFqBrhIBxW7x0K-44" value="0..*" style="edgeLabel;html=1;align=center;verticalAlign=middle;resizable=0;points=[];" parent="WIyWlLk6GJQsqaUBKTNV-1" vertex="1" connectable="0">
          <mxGeometry x="-1476" y="1340" as="geometry" />
        </mxCell>
        <mxCell id="xpbYfteFqBrhIBxW7x0K-45" value="0..*" style="edgeLabel;html=1;align=center;verticalAlign=middle;resizable=0;points=[];" parent="WIyWlLk6GJQsqaUBKTNV-1" vertex="1" connectable="0">
          <mxGeometry x="-1706" y="1330" as="geometry" />
        </mxCell>
        <mxCell id="xpbYfteFqBrhIBxW7x0K-46" value="0..*" style="edgeLabel;html=1;align=center;verticalAlign=middle;resizable=0;points=[];" parent="WIyWlLk6GJQsqaUBKTNV-1" vertex="1" connectable="0">
          <mxGeometry x="-1946" y="1350" as="geometry" />
        </mxCell>
        <mxCell id="xpbYfteFqBrhIBxW7x0K-47" value="1" style="edgeLabel;html=1;align=center;verticalAlign=middle;resizable=0;points=[];" parent="WIyWlLk6GJQsqaUBKTNV-1" vertex="1" connectable="0">
          <mxGeometry x="-1876" y="690" as="geometry" />
        </mxCell>
        <mxCell id="xpbYfteFqBrhIBxW7x0K-48" value="1" style="edgeLabel;html=1;align=center;verticalAlign=middle;resizable=0;points=[];" parent="WIyWlLk6GJQsqaUBKTNV-1" vertex="1" connectable="0">
          <mxGeometry x="-1626" y="1010" as="geometry" />
        </mxCell>
        <mxCell id="xpbYfteFqBrhIBxW7x0K-49" value="" style="endArrow=none;html=1;rounded=0;entryX=0;entryY=0.5;entryDx=0;entryDy=0;exitX=1;exitY=0.5;exitDx=0;exitDy=0;" parent="WIyWlLk6GJQsqaUBKTNV-1" source="xpbYfteFqBrhIBxW7x0K-2" target="H0wqLopW10TmKbg78DOm-41" edge="1">
          <mxGeometry width="50" height="50" relative="1" as="geometry">
            <mxPoint x="-2160" y="1060" as="sourcePoint" />
            <mxPoint x="-2110" y="1010" as="targetPoint" />
          </mxGeometry>
        </mxCell>
        <mxCell id="xpbYfteFqBrhIBxW7x0K-50" value="1" style="edgeLabel;html=1;align=center;verticalAlign=middle;resizable=0;points=[];" parent="xpbYfteFqBrhIBxW7x0K-49" vertex="1" connectable="0">
          <mxGeometry x="0.193" y="2" relative="1" as="geometry">
            <mxPoint x="32" y="-11" as="offset" />
          </mxGeometry>
        </mxCell>
        <mxCell id="xpbYfteFqBrhIBxW7x0K-52" value="0..*" style="edgeLabel;html=1;align=center;verticalAlign=middle;resizable=0;points=[];" parent="xpbYfteFqBrhIBxW7x0K-49" vertex="1" connectable="0">
          <mxGeometry x="-0.6667" y="3" relative="1" as="geometry">
            <mxPoint x="-4" y="-9" as="offset" />
          </mxGeometry>
        </mxCell>
        <mxCell id="xpbYfteFqBrhIBxW7x0K-53" value="1" style="edgeLabel;html=1;align=center;verticalAlign=middle;resizable=0;points=[];" parent="WIyWlLk6GJQsqaUBKTNV-1" vertex="1" connectable="0">
          <mxGeometry x="-1874" y="1260" as="geometry" />
        </mxCell>
        <mxCell id="xpbYfteFqBrhIBxW7x0K-54" value="" style="endArrow=none;html=1;rounded=0;entryX=0;entryY=0.5;entryDx=0;entryDy=0;exitX=1;exitY=0.5;exitDx=0;exitDy=0;" parent="WIyWlLk6GJQsqaUBKTNV-1" source="O_dw3LHJavpmpE3vmrLS-13" target="CAt87Y8O4JC6d1RtImim-5" edge="1">
          <mxGeometry width="50" height="50" relative="1" as="geometry">
            <mxPoint x="-2100" y="1270" as="sourcePoint" />
            <mxPoint x="-2140" y="1410" as="targetPoint" />
          </mxGeometry>
        </mxCell>
        <mxCell id="xpbYfteFqBrhIBxW7x0K-55" value="1" style="edgeLabel;html=1;align=center;verticalAlign=middle;resizable=0;points=[];" parent="xpbYfteFqBrhIBxW7x0K-54" vertex="1" connectable="0">
          <mxGeometry x="0.1313" y="1" relative="1" as="geometry">
            <mxPoint x="34" y="-10" as="offset" />
          </mxGeometry>
        </mxCell>
        <mxCell id="xpbYfteFqBrhIBxW7x0K-56" value="0..*" style="edgeLabel;html=1;align=center;verticalAlign=middle;resizable=0;points=[];" parent="xpbYfteFqBrhIBxW7x0K-54" vertex="1" connectable="0">
          <mxGeometry x="-0.4747" y="-1" relative="1" as="geometry">
            <mxPoint x="-12" y="-12" as="offset" />
          </mxGeometry>
        </mxCell>
        <mxCell id="xpbYfteFqBrhIBxW7x0K-57" value="" style="endArrow=none;html=1;rounded=0;entryX=0;entryY=0.5;entryDx=0;entryDy=0;exitX=1;exitY=0.5;exitDx=0;exitDy=0;" parent="WIyWlLk6GJQsqaUBKTNV-1" source="CAt87Y8O4JC6d1RtImim-54" target="xpbYfteFqBrhIBxW7x0K-10" edge="1">
          <mxGeometry width="50" height="50" relative="1" as="geometry">
            <mxPoint x="-1360" y="1130" as="sourcePoint" />
            <mxPoint x="-1310" y="1080" as="targetPoint" />
          </mxGeometry>
        </mxCell>
        <mxCell id="xpbYfteFqBrhIBxW7x0K-58" value="1" style="edgeLabel;html=1;align=center;verticalAlign=middle;resizable=0;points=[];" parent="xpbYfteFqBrhIBxW7x0K-57" vertex="1" connectable="0">
          <mxGeometry x="-0.4146" y="3" relative="1" as="geometry">
            <mxPoint x="-13" y="-10" as="offset" />
          </mxGeometry>
        </mxCell>
        <mxCell id="xpbYfteFqBrhIBxW7x0K-59" value="0..*" style="edgeLabel;html=1;align=center;verticalAlign=middle;resizable=0;points=[];" parent="xpbYfteFqBrhIBxW7x0K-57" vertex="1" connectable="0">
          <mxGeometry x="0.0244" y="1" relative="1" as="geometry">
            <mxPoint x="24" y="-12" as="offset" />
          </mxGeometry>
        </mxCell>
      </root>
    </mxGraphModel>
  </diagram>
</mxfile>
